<?xml version="1.0" encoding="UTF-8"?>
<svg xmlns="http://www.w3.org/2000/svg" style="width:0;height:0;visibility:hidden;" width="20px" height="20px">
  <symbol id="edit" viewBox="0 0 25 24">
    <path d="M14.7467 8.02667L15.9733 9.25333L3.89333 21.3333H2.66667V20.1067L14.7467 8.02667ZM19.5467 0C19.2133 0 18.8667 0.133333 18.6133 0.386667L16.1733 2.82667L21.1733 7.82667L23.6133 5.38667C24.1333 4.86667 24.1333 4.02667 23.6133 3.50667L20.4933 0.386667C20.2267 0.12 19.8933 0 19.5467 0ZM14.7467 4.25333L0 19V24H5L19.7467 9.25333L14.7467 4.25333Z"/>
  </symbol>
  <symbol id="minus" viewBox="0 0 16 16" fill="currentColor">
    <g>
      <path d="M8 15A7 7 0 1 1 8 1a7 7 0 0 1 0 14zm0 1A8 8 0 1 0 8 0a8 8 0 0 0 0 16z"></path>
      <path d="M4 8a.5.5 0 0 1 .5-.5h7a.5.5 0 0 1 0 1h-7A.5.5 0 0 1 4 8z"></path>
    </g>
  </symbol>
  <symbol id="plus" viewBox="0 0 16 16" fill="currentColor">
    <g>
      <path d="M8 15A7 7 0 1 1 8 1a7 7 0 0 1 0 14zm0 1A8 8 0 1 0 8 0a8 8 0 0 0 0 16z"></path>
      <path d="M8 4a.5.5 0 0 1 .5.5v3h3a.5.5 0 0 1 0 1h-3v3a.5.5 0 0 1-1 0v-3h-3a.5.5 0 0 1 0-1h3v-3A.5.5 0 0 1 8 4z"></path>
    </g>
  </symbol>
  <symbol id="forbidden" viewBox="0 0 24 24" fill="currentColor">
    <path d="M12 0c-6.627 0-12 5.373-12 12s5.373 12 12 12 12-5.373 12-12-5.373-12-12-12zm9 12c0 1.94-.624 3.735-1.672 5.207l-12.535-12.535c1.472-1.048 3.267-1.672 5.207-1.672 4.962 0 9 4.038 9 9zm-18 0c0-1.94.624-3.735 1.672-5.207l12.534 12.534c-1.471 1.049-3.266 1.673-5.206 1.673-4.962 0-9-4.038-9-9z"/>
  </symbol>
</svg>
